<mxfile host="app.diagrams.net" agent="Mozilla/5.0 (Windows NT 10.0; Win64; x64) AppleWebKit/537.36 (KHTML, like Gecko) Chrome/128.0.0.0 Safari/537.36" version="24.7.10">
  <diagram name="第 1 页" id="yeKz_WL-3hLmWTwC9nyE">
    <mxGraphModel dx="1434" dy="772" grid="1" gridSize="10" guides="1" tooltips="1" connect="1" arrows="1" fold="1" page="1" pageScale="1" pageWidth="827" pageHeight="1169" math="0" shadow="0">
      <root>
        <mxCell id="0" />
        <mxCell id="1" parent="0" />
        <mxCell id="iKctfQHVxDv2bTsrrXNo-3" value="" style="edgeStyle=orthogonalEdgeStyle;rounded=0;orthogonalLoop=1;jettySize=auto;html=1;" edge="1" parent="1" source="iKctfQHVxDv2bTsrrXNo-1" target="iKctfQHVxDv2bTsrrXNo-2">
          <mxGeometry relative="1" as="geometry" />
        </mxCell>
        <mxCell id="iKctfQHVxDv2bTsrrXNo-1" value="批量创建products流程" style="rounded=1;whiteSpace=wrap;html=1;" vertex="1" parent="1">
          <mxGeometry x="30" y="70" width="120" height="60" as="geometry" />
        </mxCell>
        <mxCell id="iKctfQHVxDv2bTsrrXNo-5" value="" style="edgeStyle=orthogonalEdgeStyle;rounded=0;orthogonalLoop=1;jettySize=auto;html=1;" edge="1" parent="1" source="iKctfQHVxDv2bTsrrXNo-2" target="iKctfQHVxDv2bTsrrXNo-4">
          <mxGeometry relative="1" as="geometry" />
        </mxCell>
        <mxCell id="iKctfQHVxDv2bTsrrXNo-2" value="用户认证" style="whiteSpace=wrap;html=1;rounded=1;" vertex="1" parent="1">
          <mxGeometry x="190" y="70" width="120" height="60" as="geometry" />
        </mxCell>
        <mxCell id="iKctfQHVxDv2bTsrrXNo-7" value="" style="edgeStyle=orthogonalEdgeStyle;rounded=0;orthogonalLoop=1;jettySize=auto;html=1;" edge="1" parent="1" source="iKctfQHVxDv2bTsrrXNo-4" target="iKctfQHVxDv2bTsrrXNo-6">
          <mxGeometry relative="1" as="geometry" />
        </mxCell>
        <mxCell id="iKctfQHVxDv2bTsrrXNo-4" value="根据orderId查order" style="whiteSpace=wrap;html=1;rounded=1;" vertex="1" parent="1">
          <mxGeometry x="340" y="70" width="120" height="60" as="geometry" />
        </mxCell>
        <mxCell id="iKctfQHVxDv2bTsrrXNo-9" value="" style="edgeStyle=orthogonalEdgeStyle;rounded=0;orthogonalLoop=1;jettySize=auto;html=1;" edge="1" parent="1" source="iKctfQHVxDv2bTsrrXNo-6" target="iKctfQHVxDv2bTsrrXNo-8">
          <mxGeometry relative="1" as="geometry" />
        </mxCell>
        <mxCell id="iKctfQHVxDv2bTsrrXNo-6" value="通过order的brandId和storeId校验用户权限" style="whiteSpace=wrap;html=1;rounded=1;" vertex="1" parent="1">
          <mxGeometry x="490" y="70" width="120" height="60" as="geometry" />
        </mxCell>
        <mxCell id="iKctfQHVxDv2bTsrrXNo-12" value="" style="edgeStyle=orthogonalEdgeStyle;rounded=0;orthogonalLoop=1;jettySize=auto;html=1;" edge="1" parent="1" source="iKctfQHVxDv2bTsrrXNo-8" target="iKctfQHVxDv2bTsrrXNo-11">
          <mxGeometry relative="1" as="geometry" />
        </mxCell>
        <mxCell id="iKctfQHVxDv2bTsrrXNo-8" value="加锁&lt;div&gt;&#39;lock.inventory.order.update.&#39;&lt;br&gt;&lt;/div&gt;&lt;div&gt;+orderId&lt;/div&gt;" style="whiteSpace=wrap;html=1;rounded=1;" vertex="1" parent="1">
          <mxGeometry x="630" y="70" width="170" height="60" as="geometry" />
        </mxCell>
        <mxCell id="iKctfQHVxDv2bTsrrXNo-14" value="" style="edgeStyle=orthogonalEdgeStyle;rounded=0;orthogonalLoop=1;jettySize=auto;html=1;" edge="1" parent="1" source="iKctfQHVxDv2bTsrrXNo-11" target="iKctfQHVxDv2bTsrrXNo-13">
          <mxGeometry relative="1" as="geometry" />
        </mxCell>
        <mxCell id="iKctfQHVxDv2bTsrrXNo-11" value="开启事务" style="whiteSpace=wrap;html=1;rounded=1;" vertex="1" parent="1">
          <mxGeometry x="827" y="70" width="120" height="60" as="geometry" />
        </mxCell>
        <mxCell id="iKctfQHVxDv2bTsrrXNo-16" value="" style="edgeStyle=orthogonalEdgeStyle;rounded=0;orthogonalLoop=1;jettySize=auto;html=1;" edge="1" parent="1" source="iKctfQHVxDv2bTsrrXNo-13" target="iKctfQHVxDv2bTsrrXNo-15">
          <mxGeometry relative="1" as="geometry" />
        </mxCell>
        <mxCell id="iKctfQHVxDv2bTsrrXNo-13" value="通过orderId获取需要创建产品itemIds:&lt;div&gt;$needCreateProductItemIds&lt;br&gt;&lt;/div&gt;" style="whiteSpace=wrap;html=1;rounded=1;" vertex="1" parent="1">
          <mxGeometry x="778.25" y="170" width="217.5" height="60" as="geometry" />
        </mxCell>
        <mxCell id="iKctfQHVxDv2bTsrrXNo-20" value="" style="edgeStyle=orthogonalEdgeStyle;rounded=0;orthogonalLoop=1;jettySize=auto;html=1;fontFamily=Helvetica;fontSize=12;fontColor=default;" edge="1" parent="1" source="iKctfQHVxDv2bTsrrXNo-15" target="iKctfQHVxDv2bTsrrXNo-19">
          <mxGeometry relative="1" as="geometry" />
        </mxCell>
        <mxCell id="iKctfQHVxDv2bTsrrXNo-15" value="校验:&amp;nbsp;需要创建产品的itemIds和参数传进来的itemIds必须保持一致" style="whiteSpace=wrap;html=1;rounded=1;" vertex="1" parent="1">
          <mxGeometry x="630" y="170" width="130" height="60" as="geometry" />
        </mxCell>
        <mxCell id="iKctfQHVxDv2bTsrrXNo-22" value="" style="edgeStyle=orthogonalEdgeStyle;rounded=0;orthogonalLoop=1;jettySize=auto;html=1;fontFamily=Helvetica;fontSize=12;fontColor=default;" edge="1" parent="1" source="iKctfQHVxDv2bTsrrXNo-19" target="iKctfQHVxDv2bTsrrXNo-21">
          <mxGeometry relative="1" as="geometry" />
        </mxCell>
        <mxCell id="iKctfQHVxDv2bTsrrXNo-19" value="处理产品类目: 没传类目id的根据类目名称去重后批量创建类目" style="whiteSpace=wrap;html=1;rounded=1;" vertex="1" parent="1">
          <mxGeometry x="490" y="170" width="120" height="60" as="geometry" />
        </mxCell>
        <mxCell id="iKctfQHVxDv2bTsrrXNo-54" value="" style="edgeStyle=orthogonalEdgeStyle;rounded=0;orthogonalLoop=1;jettySize=auto;html=1;fontFamily=Helvetica;fontSize=12;fontColor=default;" edge="1" parent="1" source="iKctfQHVxDv2bTsrrXNo-21" target="iKctfQHVxDv2bTsrrXNo-53">
          <mxGeometry relative="1" as="geometry" />
        </mxCell>
        <mxCell id="iKctfQHVxDv2bTsrrXNo-21" value="类目list中关联类目tid:&lt;div&gt;新的创建时回填tid，&lt;br&gt;旧的根据uid,name批量查出来&lt;/div&gt;" style="whiteSpace=wrap;html=1;rounded=1;" vertex="1" parent="1">
          <mxGeometry x="340" y="170" width="130" height="60" as="geometry" />
        </mxCell>
        <mxCell id="iKctfQHVxDv2bTsrrXNo-26" value="" style="edgeStyle=orthogonalEdgeStyle;rounded=0;orthogonalLoop=1;jettySize=auto;html=1;fontFamily=Helvetica;fontSize=12;fontColor=default;" edge="1" parent="1" source="iKctfQHVxDv2bTsrrXNo-23" target="iKctfQHVxDv2bTsrrXNo-25">
          <mxGeometry relative="1" as="geometry" />
        </mxCell>
        <mxCell id="iKctfQHVxDv2bTsrrXNo-23" value="构建类目nameToIdMap:&lt;div&gt;$categoryNameToIdMap&lt;/div&gt;" style="whiteSpace=wrap;html=1;rounded=1;" vertex="1" parent="1">
          <mxGeometry x="30" y="170" width="145" height="60" as="geometry" />
        </mxCell>
        <mxCell id="iKctfQHVxDv2bTsrrXNo-28" value="" style="edgeStyle=orthogonalEdgeStyle;rounded=0;orthogonalLoop=1;jettySize=auto;html=1;fontFamily=Helvetica;fontSize=12;fontColor=default;" edge="1" parent="1" source="iKctfQHVxDv2bTsrrXNo-25" target="iKctfQHVxDv2bTsrrXNo-27">
          <mxGeometry relative="1" as="geometry" />
        </mxCell>
        <mxCell id="iKctfQHVxDv2bTsrrXNo-25" value="将products参数按code是否存在分为待创建和待更新:&lt;div&gt;$updateProducts,&lt;/div&gt;&lt;div&gt;$createProducts&lt;/div&gt;" style="whiteSpace=wrap;html=1;rounded=1;" vertex="1" parent="1">
          <mxGeometry x="28.75" y="260" width="147.5" height="90" as="geometry" />
        </mxCell>
        <mxCell id="iKctfQHVxDv2bTsrrXNo-30" value="" style="edgeStyle=orthogonalEdgeStyle;rounded=0;orthogonalLoop=1;jettySize=auto;html=1;fontFamily=Helvetica;fontSize=12;fontColor=default;" edge="1" parent="1" source="iKctfQHVxDv2bTsrrXNo-27" target="iKctfQHVxDv2bTsrrXNo-29">
          <mxGeometry relative="1" as="geometry" />
        </mxCell>
        <mxCell id="iKctfQHVxDv2bTsrrXNo-27" value="$updateProducts根据code查询结果填入id、tid" style="whiteSpace=wrap;html=1;rounded=1;" vertex="1" parent="1">
          <mxGeometry x="200" y="275" width="120" height="60" as="geometry" />
        </mxCell>
        <mxCell id="iKctfQHVxDv2bTsrrXNo-32" value="" style="edgeStyle=orthogonalEdgeStyle;rounded=0;orthogonalLoop=1;jettySize=auto;html=1;fontFamily=Helvetica;fontSize=12;fontColor=default;" edge="1" parent="1" source="iKctfQHVxDv2bTsrrXNo-29" target="iKctfQHVxDv2bTsrrXNo-31">
          <mxGeometry relative="1" as="geometry" />
        </mxCell>
        <mxCell id="iKctfQHVxDv2bTsrrXNo-29" value="$createProducts根据请求&lt;div&gt;参数填入数据；&lt;div&gt;根据&lt;span style=&quot;background-color: initial;&quot;&gt;$categoryNameToIdMap，&lt;/span&gt;&lt;/div&gt;&lt;div&gt;&lt;span style=&quot;background-color: initial;&quot;&gt;通过类目名称获取类目tid并填入&lt;/span&gt;&lt;/div&gt;&lt;/div&gt;" style="whiteSpace=wrap;html=1;rounded=1;" vertex="1" parent="1">
          <mxGeometry x="340" y="267.5" width="170" height="75" as="geometry" />
        </mxCell>
        <mxCell id="iKctfQHVxDv2bTsrrXNo-34" value="" style="edgeStyle=orthogonalEdgeStyle;rounded=0;orthogonalLoop=1;jettySize=auto;html=1;fontFamily=Helvetica;fontSize=12;fontColor=default;" edge="1" parent="1" source="iKctfQHVxDv2bTsrrXNo-31" target="iKctfQHVxDv2bTsrrXNo-33">
          <mxGeometry relative="1" as="geometry" />
        </mxCell>
        <mxCell id="iKctfQHVxDv2bTsrrXNo-31" value="通过$updateProducts更新产品" style="whiteSpace=wrap;html=1;rounded=1;" vertex="1" parent="1">
          <mxGeometry x="540" y="275" width="120" height="60" as="geometry" />
        </mxCell>
        <mxCell id="iKctfQHVxDv2bTsrrXNo-36" value="" style="edgeStyle=orthogonalEdgeStyle;rounded=0;orthogonalLoop=1;jettySize=auto;html=1;fontFamily=Helvetica;fontSize=12;fontColor=default;" edge="1" parent="1" source="iKctfQHVxDv2bTsrrXNo-33" target="iKctfQHVxDv2bTsrrXNo-35">
          <mxGeometry relative="1" as="geometry" />
        </mxCell>
        <mxCell id="iKctfQHVxDv2bTsrrXNo-33" value="通过$createProducts批量创建产品，并回填tid" style="whiteSpace=wrap;html=1;rounded=1;" vertex="1" parent="1">
          <mxGeometry x="690" y="275" width="130" height="60" as="geometry" />
        </mxCell>
        <mxCell id="iKctfQHVxDv2bTsrrXNo-38" value="" style="edgeStyle=orthogonalEdgeStyle;rounded=0;orthogonalLoop=1;jettySize=auto;html=1;fontFamily=Helvetica;fontSize=12;fontColor=default;" edge="1" parent="1" source="iKctfQHVxDv2bTsrrXNo-35" target="iKctfQHVxDv2bTsrrXNo-37">
          <mxGeometry relative="1" as="geometry" />
        </mxCell>
        <mxCell id="iKctfQHVxDv2bTsrrXNo-35" value="通过$updateProducts&lt;div&gt;和$createProducts构建&lt;/div&gt;&lt;div&gt;全部产品列表:&lt;br&gt;$allProducts&lt;/div&gt;" style="whiteSpace=wrap;html=1;rounded=1;" vertex="1" parent="1">
          <mxGeometry x="850" y="275" width="130" height="60" as="geometry" />
        </mxCell>
        <mxCell id="iKctfQHVxDv2bTsrrXNo-40" value="" style="edgeStyle=orthogonalEdgeStyle;rounded=0;orthogonalLoop=1;jettySize=auto;html=1;fontFamily=Helvetica;fontSize=12;fontColor=default;" edge="1" parent="1" source="iKctfQHVxDv2bTsrrXNo-37" target="iKctfQHVxDv2bTsrrXNo-39">
          <mxGeometry relative="1" as="geometry" />
        </mxCell>
        <mxCell id="iKctfQHVxDv2bTsrrXNo-37" value="通过$allProducts构建&lt;div&gt;产品uidToIdMap:&lt;/div&gt;&lt;div&gt;$produtcUidToIdMap&lt;/div&gt;" style="whiteSpace=wrap;html=1;rounded=1;" vertex="1" parent="1">
          <mxGeometry x="855" y="370" width="120" height="60" as="geometry" />
        </mxCell>
        <mxCell id="iKctfQHVxDv2bTsrrXNo-42" value="" style="edgeStyle=orthogonalEdgeStyle;rounded=0;orthogonalLoop=1;jettySize=auto;html=1;fontFamily=Helvetica;fontSize=12;fontColor=default;" edge="1" parent="1" source="iKctfQHVxDv2bTsrrXNo-39" target="iKctfQHVxDv2bTsrrXNo-41">
          <mxGeometry relative="1" as="geometry" />
        </mxCell>
        <mxCell id="iKctfQHVxDv2bTsrrXNo-39" value="构建批量创建&lt;div&gt;store_product参数：&lt;/div&gt;&lt;div&gt;通过$productUidToIdMap获取并填入productTid&lt;/div&gt;" style="whiteSpace=wrap;html=1;rounded=1;" vertex="1" parent="1">
          <mxGeometry x="680" y="370" width="147" height="60" as="geometry" />
        </mxCell>
        <mxCell id="iKctfQHVxDv2bTsrrXNo-44" value="" style="edgeStyle=orthogonalEdgeStyle;rounded=0;orthogonalLoop=1;jettySize=auto;html=1;fontFamily=Helvetica;fontSize=12;fontColor=default;" edge="1" parent="1" source="iKctfQHVxDv2bTsrrXNo-41" target="iKctfQHVxDv2bTsrrXNo-43">
          <mxGeometry relative="1" as="geometry" />
        </mxCell>
        <mxCell id="iKctfQHVxDv2bTsrrXNo-41" value="批量创建store_product" style="whiteSpace=wrap;html=1;rounded=1;" vertex="1" parent="1">
          <mxGeometry x="540" y="370" width="120" height="60" as="geometry" />
        </mxCell>
        <mxCell id="iKctfQHVxDv2bTsrrXNo-46" value="" style="edgeStyle=orthogonalEdgeStyle;rounded=0;orthogonalLoop=1;jettySize=auto;html=1;fontFamily=Helvetica;fontSize=12;fontColor=default;" edge="1" parent="1" source="iKctfQHVxDv2bTsrrXNo-43" target="iKctfQHVxDv2bTsrrXNo-45">
          <mxGeometry relative="1" as="geometry" />
        </mxCell>
        <mxCell id="iKctfQHVxDv2bTsrrXNo-43" value="通过参数构建codeToItemIdMap:&lt;div&gt;$codeToItemIdMap&lt;/div&gt;" style="whiteSpace=wrap;html=1;rounded=1;" vertex="1" parent="1">
          <mxGeometry x="380" y="370" width="120" height="60" as="geometry" />
        </mxCell>
        <mxCell id="iKctfQHVxDv2bTsrrXNo-48" value="" style="edgeStyle=orthogonalEdgeStyle;rounded=0;orthogonalLoop=1;jettySize=auto;html=1;fontFamily=Helvetica;fontSize=12;fontColor=default;" edge="1" parent="1" source="iKctfQHVxDv2bTsrrXNo-45" target="iKctfQHVxDv2bTsrrXNo-47">
          <mxGeometry relative="1" as="geometry" />
        </mxCell>
        <mxCell id="iKctfQHVxDv2bTsrrXNo-45" value="循环$allProducts,关联item:&lt;div&gt;1.通过$codeToItemIdMap&lt;/div&gt;&lt;div&gt;获取itemId；&lt;/div&gt;&lt;div&gt;2.通过$allProducts获取uid&lt;/div&gt;" style="whiteSpace=wrap;html=1;rounded=1;" vertex="1" parent="1">
          <mxGeometry x="190" y="370" width="160" height="60" as="geometry" />
        </mxCell>
        <mxCell id="iKctfQHVxDv2bTsrrXNo-50" value="" style="edgeStyle=orthogonalEdgeStyle;rounded=0;orthogonalLoop=1;jettySize=auto;html=1;fontFamily=Helvetica;fontSize=12;fontColor=default;" edge="1" parent="1" source="iKctfQHVxDv2bTsrrXNo-47" target="iKctfQHVxDv2bTsrrXNo-49">
          <mxGeometry relative="1" as="geometry" />
        </mxCell>
        <mxCell id="iKctfQHVxDv2bTsrrXNo-47" value="为每一个product批量创建一个默认库存store_inventories" style="whiteSpace=wrap;html=1;rounded=1;" vertex="1" parent="1">
          <mxGeometry x="40" y="370" width="120" height="60" as="geometry" />
        </mxCell>
        <mxCell id="iKctfQHVxDv2bTsrrXNo-52" value="" style="edgeStyle=orthogonalEdgeStyle;rounded=0;orthogonalLoop=1;jettySize=auto;html=1;fontFamily=Helvetica;fontSize=12;fontColor=default;" edge="1" parent="1" source="iKctfQHVxDv2bTsrrXNo-49" target="iKctfQHVxDv2bTsrrXNo-51">
          <mxGeometry relative="1" as="geometry" />
        </mxCell>
        <mxCell id="iKctfQHVxDv2bTsrrXNo-49" value="提交事务" style="whiteSpace=wrap;html=1;rounded=1;" vertex="1" parent="1">
          <mxGeometry x="40" y="470" width="120" height="60" as="geometry" />
        </mxCell>
        <mxCell id="iKctfQHVxDv2bTsrrXNo-51" value="解锁&lt;div&gt;&lt;div&gt;&#39;lock.inventory.order.update.&#39;&lt;br&gt;&lt;/div&gt;&lt;div&gt;+orderId&lt;/div&gt;&lt;/div&gt;" style="whiteSpace=wrap;html=1;rounded=1;" vertex="1" parent="1">
          <mxGeometry x="200" y="470" width="160" height="60" as="geometry" />
        </mxCell>
        <mxCell id="iKctfQHVxDv2bTsrrXNo-55" value="" style="edgeStyle=orthogonalEdgeStyle;rounded=0;orthogonalLoop=1;jettySize=auto;html=1;fontFamily=Helvetica;fontSize=12;fontColor=default;" edge="1" parent="1" source="iKctfQHVxDv2bTsrrXNo-53" target="iKctfQHVxDv2bTsrrXNo-23">
          <mxGeometry relative="1" as="geometry" />
        </mxCell>
        <mxCell id="iKctfQHVxDv2bTsrrXNo-53" value="校验旧的类目查出来的数量和参数数量是否一致" style="whiteSpace=wrap;html=1;rounded=1;" vertex="1" parent="1">
          <mxGeometry x="200" y="170" width="120" height="60" as="geometry" />
        </mxCell>
      </root>
    </mxGraphModel>
  </diagram>
</mxfile>
